<svg width="112" height="65" viewBox="0 0 112 65" fill="none" xmlns="http://www.w3.org/2000/svg">
<g clip-path="url(#clip0_211_18)">
<rect width="112" height="65" rx="5" fill="white"/>
<g filter="url(#filter0_d_211_18)">
<path d="M-0.839844 15C-0.839844 6.71573 5.87588 0 14.1602 0H97.9335C106.218 0 112.933 6.71573 112.933 15V51.5476C112.933 59.8319 106.218 66.5476 97.9335 66.5476H14.1601C5.87587 66.5476 -0.839844 59.8319 -0.839844 51.5476V15Z" fill="#11252B"/>
</g>
<path d="M493.306 380.151L-69.2148 -92V380.151H493.306Z" fill="url(#paint0_linear_211_18)"/>
<path d="M466.508 407L-75.7637 -58.6023H307.123L847.583 407H466.508Z" fill="url(#paint1_linear_211_18)"/>
<rect x="5" y="5" width="102" height="55" rx="3" fill="#11252B"/>
<path d="M21.3405 25.2791L25.1021 14.7702H22.3918L20.1085 21.565L17.8253 14.7702H15L18.7616 25.2791H21.3405Z" fill="white"/>
<path d="M32.4886 17.5771H29.9097V22.2497C29.7782 22.7802 29.3347 23.1054 28.8584 23.1054C28.2013 23.1054 27.9057 22.6433 27.9057 21.9929V17.5771H25.3432V22.6262C25.3432 24.3377 26.3123 25.4503 27.9385 25.4503C28.7763 25.4503 29.5154 25.0908 29.9097 24.6116V25.2791H32.4886V17.5771Z" fill="white"/>
<path d="M38.3133 22.592C38.1655 23.1225 37.7548 23.3622 37.2292 23.3622C36.49 23.3622 36.0301 22.8658 35.9479 21.9416H40.7279V21.2741C40.7279 18.9806 39.4467 17.406 37.1799 17.406C35.0445 17.406 33.4676 19.0491 33.4676 21.4281C33.4676 23.8243 34.9624 25.4503 37.2292 25.4503C39.151 25.4503 40.4323 24.372 40.6951 22.592H38.3133ZM37.1799 19.4941C37.8205 19.4941 38.1983 19.9733 38.2312 20.6066H35.9972C36.1615 19.8877 36.5721 19.4941 37.1799 19.4941Z" fill="white"/>
<path d="M41.3774 20.0246C41.3774 23.2081 43.3978 25.4503 46.2231 25.4503C48.7363 25.4503 50.2147 23.8927 50.576 21.7362H47.9478C47.685 22.5235 47.143 23.037 46.2231 23.037C44.8269 23.037 44.0384 21.7362 44.0384 20.0246C44.0384 18.296 44.8269 17.0123 46.2231 17.0123C47.143 17.0123 47.685 17.5258 47.9478 18.296H50.576C50.2147 16.1565 48.7363 14.599 46.2231 14.599C43.3978 14.599 41.3774 16.8412 41.3774 20.0246Z" fill="white"/>
<path d="M58.7811 21.4281C58.7811 19.0491 57.2535 17.406 55.0031 17.406C52.7692 17.406 51.2251 19.0491 51.2251 21.4281C51.2251 23.8072 52.7692 25.4503 55.0031 25.4503C57.2535 25.4503 58.7811 23.8072 58.7811 21.4281ZM56.2515 21.4281C56.2515 22.4893 55.808 23.2252 55.0031 23.2252C54.2147 23.2252 53.7712 22.4893 53.7712 21.4281C53.7712 20.367 54.2147 19.6139 55.0031 19.6139C55.808 19.6139 56.2515 20.367 56.2515 21.4281Z" fill="white"/>
<path d="M59.7843 25.2791H62.3632V20.6237C62.4946 20.0931 62.9217 19.785 63.4309 19.785C64.0879 19.785 64.4 20.2471 64.4 20.8804V25.2791H66.9625V20.23C66.9625 18.5185 65.9934 17.406 64.3507 17.406C63.4966 17.406 62.7738 17.7654 62.3632 18.2446V17.5771H59.7843V25.2791Z" fill="white"/>
<path d="M73 14.2054C72.6879 14.0856 72.2937 14 71.8009 14C69.994 14 68.9263 15.1639 68.9263 17.0123V17.5771H67.8258V19.6652H68.9263V25.2791H71.4724V19.6652H72.9014V17.5771H71.4724V17.1664C71.4724 16.5502 71.8173 16.2421 72.3922 16.2421C72.6222 16.2421 72.8193 16.2935 73 16.3962V14.2054Z" fill="white"/>
<path d="M15.898 30.6819H19.0025V38.8288H21.6471V30.6819H24.7681V28.3199H15.898V30.6819Z" fill="white"/>
<path d="M31.939 34.9779C31.939 32.5988 30.4113 30.9557 28.161 30.9557C25.927 30.9557 24.383 32.5988 24.383 34.9779C24.383 37.3569 25.927 39 28.161 39C30.4113 39 31.939 37.3569 31.939 34.9779ZM29.4093 34.9779C29.4093 36.039 28.9658 36.775 28.161 36.775C27.3725 36.775 26.929 36.039 26.929 34.9779C26.929 33.9167 27.3725 33.1636 28.161 33.1636C28.9658 33.1636 29.4093 33.9167 29.4093 34.9779Z" fill="white"/>
<path d="M37.9028 31.0927C37.7878 31.0242 37.525 30.9557 37.1965 30.9557C36.4573 30.9557 35.8824 31.298 35.521 31.8115V31.1269H32.9421V38.8288H35.521V34.3104C35.6524 33.7627 36.1288 33.4375 36.8351 33.4375C37.2458 33.4375 37.5907 33.5059 37.9028 33.6771V31.0927Z" fill="white"/>
<path d="M46.007 34.9779C46.007 32.5988 44.4794 30.9557 42.229 30.9557C39.9951 30.9557 38.451 32.5988 38.451 34.9779C38.451 37.3569 39.9951 39 42.229 39C44.4794 39 46.007 37.3569 46.007 34.9779ZM43.4774 34.9779C43.4774 36.039 43.0339 36.775 42.229 36.775C41.4406 36.775 40.9971 36.039 40.9971 34.9779C40.9971 33.9167 41.4406 33.1636 42.229 33.1636C43.0339 33.1636 43.4774 33.9167 43.4774 34.9779Z" fill="white"/>
<path d="M47.0102 38.8288H49.5891V34.1734C49.7205 33.6429 50.1476 33.3348 50.6568 33.3348C51.3138 33.3348 51.6259 33.7969 51.6259 34.4302V38.8288H54.1884V33.7798C54.1884 32.0682 53.2193 30.9557 51.5767 30.9557C50.7225 30.9557 49.9997 31.3152 49.5891 31.7944V31.1269H47.0102V38.8288Z" fill="white"/>
<path d="M56.0701 36.1759C56.0701 38.1271 57.0557 38.9829 58.7968 38.9829C59.3717 38.9829 59.9302 38.8802 60.2259 38.7433V36.4669C59.9959 36.5696 59.6838 36.6381 59.4046 36.6381C58.8954 36.6381 58.6161 36.3813 58.6161 35.7823V33.215H60.1602V31.1269H58.6161V29.0046H56.0701V31.1269H54.986V33.215H56.0701V36.1759Z" fill="white"/>
<path d="M68.5448 34.9779C68.5448 32.5988 67.0172 30.9557 64.7668 30.9557C62.5329 30.9557 60.9888 32.5988 60.9888 34.9779C60.9888 37.3569 62.5329 39 64.7668 39C67.0172 39 68.5448 37.3569 68.5448 34.9779ZM66.0152 34.9779C66.0152 36.039 65.5717 36.775 64.7668 36.775C63.9784 36.775 63.5349 36.039 63.5349 34.9779C63.5349 33.9167 63.9784 33.1636 64.7668 33.1636C65.5717 33.1636 66.0152 33.9167 66.0152 34.9779Z" fill="white"/>
<path opacity="0.7" d="M24.0245 44.4545V51H22.9698L19.8857 46.5415H19.8313V51H18.6456V44.4545H19.7067L22.7876 48.9162H22.8452V44.4545H24.0245ZM27.4067 51.0959C26.9273 51.0959 26.5118 50.9904 26.1602 50.7795C25.8087 50.5685 25.536 50.2734 25.3421 49.8942C25.1503 49.5149 25.0544 49.0717 25.0544 48.5646C25.0544 48.0575 25.1503 47.6133 25.3421 47.2319C25.536 46.8505 25.8087 46.5543 26.1602 46.3434C26.5118 46.1325 26.9273 46.027 27.4067 46.027C27.8861 46.027 28.3016 46.1325 28.6531 46.3434C29.0047 46.5543 29.2764 46.8505 29.4681 47.2319C29.662 47.6133 29.759 48.0575 29.759 48.5646C29.759 49.0717 29.662 49.5149 29.4681 49.8942C29.2764 50.2734 29.0047 50.5685 28.6531 50.7795C28.3016 50.9904 27.8861 51.0959 27.4067 51.0959ZM27.4131 50.169C27.673 50.169 27.8904 50.0977 28.0651 49.9549C28.2398 49.81 28.3698 49.6161 28.455 49.3732C28.5423 49.1303 28.586 48.8597 28.586 48.5614C28.586 48.261 28.5423 47.9893 28.455 47.7464C28.3698 47.5014 28.2398 47.3065 28.0651 47.1616C27.8904 47.0167 27.673 46.9442 27.4131 46.9442C27.1468 46.9442 26.9252 47.0167 26.7483 47.1616C26.5736 47.3065 26.4426 47.5014 26.3552 47.7464C26.27 47.9893 26.2274 48.261 26.2274 48.5614C26.2274 48.8597 26.27 49.1303 26.3552 49.3732C26.4426 49.6161 26.5736 49.81 26.7483 49.9549C26.9252 50.0977 27.1468 50.169 27.4131 50.169ZM34.9589 46.0909L33.2107 51H31.9323L30.184 46.0909H31.4177L32.5459 49.7376H32.597L33.7284 46.0909H34.9589ZM40.6414 44.4545V51H39.4557V45.6083H39.4173L37.8865 46.5863V45.4996L39.5132 44.4545H40.6414ZM45.2916 47.2511V48.2035H42.3449V47.2511H45.2916ZM48.7833 51.0895C48.3231 51.0895 47.914 51.0107 47.556 50.853C47.2002 50.6953 46.9189 50.4759 46.7123 50.1946C46.5056 49.9134 46.3959 49.5884 46.3831 49.2198H47.5848C47.5954 49.3967 47.654 49.5511 47.7606 49.6832C47.8671 49.8132 48.0088 49.9144 48.1856 49.9869C48.3625 50.0593 48.5606 50.0955 48.7801 50.0955C49.0145 50.0955 49.2222 50.055 49.4033 49.9741C49.5844 49.891 49.7261 49.7759 49.8284 49.6289C49.9307 49.4819 49.9807 49.3125 49.9786 49.1207C49.9807 48.9226 49.9296 48.7479 49.8252 48.5966C49.7208 48.4453 49.5695 48.3271 49.3714 48.2418C49.1753 48.1566 48.9388 48.114 48.6618 48.114H48.0834V47.1999H48.6618C48.8898 47.1999 49.089 47.1605 49.2595 47.0817C49.4321 47.0028 49.5674 46.892 49.6654 46.7493C49.7634 46.6044 49.8113 46.4371 49.8092 46.2475C49.8113 46.0621 49.7698 45.9013 49.6846 45.7649C49.6015 45.6264 49.4832 45.5188 49.3298 45.4421C49.1785 45.3654 49.0006 45.3271 48.7961 45.3271C48.5958 45.3271 48.4104 45.3633 48.24 45.4357C48.0695 45.5082 47.9321 45.6115 47.8277 45.7457C47.7233 45.8778 47.6679 46.0355 47.6615 46.2188H46.5205C46.529 45.8523 46.6345 45.5305 46.8369 45.2536C47.0415 44.9744 47.3142 44.7571 47.6551 44.6016C47.996 44.4439 48.3785 44.3651 48.8025 44.3651C49.2393 44.3651 49.6185 44.4471 49.9403 44.6112C50.2641 44.7731 50.5145 44.9915 50.6913 45.2663C50.8682 45.5412 50.9566 45.8448 50.9566 46.1772C50.9587 46.5458 50.8501 46.8548 50.6306 47.104C50.4133 47.3533 50.1278 47.5163 49.7741 47.593V47.6442C50.2343 47.7081 50.5869 47.8786 50.8319 48.1555C51.0791 48.4304 51.2016 48.7724 51.1995 49.1815C51.1995 49.5479 51.0951 49.8761 50.8863 50.1658C50.6796 50.4535 50.3941 50.6793 50.0297 50.8434C49.6675 51.0075 49.252 51.0895 48.7833 51.0895ZM53.4743 50.1051L53.4327 50.4567C53.4029 50.7251 53.3496 50.9979 53.2729 51.2749C53.1983 51.554 53.1195 51.8107 53.0364 52.0451C52.9533 52.2795 52.8862 52.4638 52.835 52.598H52.0552C52.085 52.468 52.1255 52.2912 52.1767 52.0675C52.2299 51.8438 52.2811 51.5923 52.3301 51.3132C52.3791 51.0341 52.4121 50.7507 52.4292 50.4631L52.4515 50.1051H53.4743ZM56.7877 51V50.1435L59.0601 47.9158C59.2774 47.6964 59.4585 47.5014 59.6034 47.331C59.7483 47.1605 59.857 46.9954 59.9294 46.8356C60.0019 46.6758 60.0381 46.5053 60.0381 46.3242C60.0381 46.1175 59.9912 45.9407 59.8975 45.7937C59.8037 45.6445 59.6748 45.5295 59.5107 45.4485C59.3467 45.3675 59.1602 45.3271 58.9514 45.3271C58.7362 45.3271 58.5477 45.3718 58.3857 45.4613C58.2238 45.5487 58.0981 45.6733 58.0086 45.8352C57.9213 45.9972 57.8776 46.19 57.8776 46.4137H56.7494C56.7494 45.9982 56.8442 45.6371 57.0338 45.3303C57.2235 45.0234 57.4845 44.7859 57.8169 44.6175C58.1514 44.4492 58.5349 44.3651 58.9674 44.3651C59.4063 44.3651 59.792 44.4471 60.1244 44.6112C60.4568 44.7752 60.7146 45 60.8978 45.2855C61.0832 45.571 61.1759 45.897 61.1759 46.2635C61.1759 46.5085 61.129 46.7493 61.0352 46.9858C60.9415 47.2223 60.7764 47.4844 60.5399 47.772C60.3055 48.0597 59.9763 48.408 59.5523 48.8171L58.4241 49.9645V50.0092H61.2749V51H56.7877ZM64.797 51.1246C64.2707 51.1246 63.819 50.9915 63.4419 50.7251C63.0669 50.4567 62.7781 50.07 62.5757 49.565C62.3754 49.0579 62.2753 48.4474 62.2753 47.7337C62.2774 47.0199 62.3786 46.4126 62.5789 45.9119C62.7813 45.4091 63.07 45.0256 63.445 44.7614C63.8222 44.4972 64.2728 44.3651 64.797 44.3651C65.3211 44.3651 65.7718 44.4972 66.1489 44.7614C66.526 45.0256 66.8147 45.4091 67.015 45.9119C67.2174 46.4148 67.3186 47.022 67.3186 47.7337C67.3186 48.4496 67.2174 49.0611 67.015 49.5682C66.8147 50.0732 66.526 50.4588 66.1489 50.7251C65.7739 50.9915 65.3232 51.1246 64.797 51.1246ZM64.797 50.1243C65.2061 50.1243 65.5289 49.9229 65.7654 49.5202C66.004 49.1154 66.1233 48.5199 66.1233 47.7337C66.1233 47.2138 66.069 46.777 65.9603 46.4233C65.8517 46.0696 65.6982 45.8033 65.5001 45.6243C65.3019 45.4432 65.0676 45.3526 64.797 45.3526C64.39 45.3526 64.0683 45.555 63.8318 45.9599C63.5953 46.3626 63.4759 46.9538 63.4738 47.7337C63.4717 48.2557 63.5239 48.6946 63.6304 49.0504C63.7391 49.4062 63.8925 49.6747 64.0906 49.8558C64.2888 50.0348 64.5242 50.1243 64.797 50.1243ZM68.3805 51V50.1435L70.6529 47.9158C70.8702 47.6964 71.0513 47.5014 71.1962 47.331C71.3411 47.1605 71.4498 46.9954 71.5222 46.8356C71.5946 46.6758 71.6309 46.5053 71.6309 46.3242C71.6309 46.1175 71.584 45.9407 71.4902 45.7937C71.3965 45.6445 71.2676 45.5295 71.1035 45.4485C70.9395 45.3675 70.753 45.3271 70.5442 45.3271C70.329 45.3271 70.1404 45.3718 69.9785 45.4613C69.8166 45.5487 69.6909 45.6733 69.6014 45.8352C69.514 45.9972 69.4703 46.19 69.4703 46.4137H68.3422C68.3422 45.9982 68.437 45.6371 68.6266 45.3303C68.8162 45.0234 69.0772 44.7859 69.4096 44.6175C69.7441 44.4492 70.1277 44.3651 70.5602 44.3651C70.9991 44.3651 71.3848 44.4471 71.7172 44.6112C72.0495 44.7752 72.3074 45 72.4906 45.2855C72.676 45.571 72.7686 45.897 72.7686 46.2635C72.7686 46.5085 72.7218 46.7493 72.628 46.9858C72.5343 47.2223 72.3691 47.4844 72.1326 47.772C71.8983 48.0597 71.5691 48.408 71.1451 48.8171L70.0169 49.9645V50.0092H72.8677V51H68.3805ZM73.9703 51V50.1435L76.2427 47.9158C76.46 47.6964 76.6412 47.5014 76.786 47.331C76.9309 47.1605 77.0396 46.9954 77.112 46.8356C77.1845 46.6758 77.2207 46.5053 77.2207 46.3242C77.2207 46.1175 77.1738 45.9407 77.0801 45.7937C76.9863 45.6445 76.8574 45.5295 76.6934 45.4485C76.5293 45.3675 76.3429 45.3271 76.1341 45.3271C75.9189 45.3271 75.7303 45.3718 75.5684 45.4613C75.4064 45.5487 75.2807 45.6733 75.1912 45.8352C75.1039 45.9972 75.0602 46.19 75.0602 46.4137H73.932C73.932 45.9982 74.0268 45.6371 74.2164 45.3303C74.4061 45.0234 74.6671 44.7859 74.9995 44.6175C75.334 44.4492 75.7175 44.3651 76.15 44.3651C76.589 44.3651 76.9746 44.4471 77.307 44.6112C77.6394 44.7752 77.8972 45 78.0804 45.2855C78.2658 45.571 78.3585 45.897 78.3585 46.2635C78.3585 46.5085 78.3116 46.7493 78.2179 46.9858C78.1241 47.2223 77.959 47.4844 77.7225 47.772C77.4881 48.0597 77.1589 48.408 76.7349 48.8171L75.6067 49.9645V50.0092H78.4576V51H73.9703Z" fill="white"/>
</g>
<defs>
<filter id="filter0_d_211_18" x="-9.83984" y="-9" width="141.773" height="94.5476" filterUnits="userSpaceOnUse" color-interpolation-filters="sRGB">
<feFlood flood-opacity="0" result="BackgroundImageFix"/>
<feColorMatrix in="SourceAlpha" type="matrix" values="0 0 0 0 0 0 0 0 0 0 0 0 0 0 0 0 0 0 127 0" result="hardAlpha"/>
<feOffset dx="5" dy="5"/>
<feGaussianBlur stdDeviation="7"/>
<feColorMatrix type="matrix" values="0 0 0 0 0 0 0 0 0 0 0 0 0 0 0 0 0 0 0.25 0"/>
<feBlend mode="normal" in2="BackgroundImageFix" result="effect1_dropShadow_211_18"/>
<feBlend mode="normal" in="SourceGraphic" in2="effect1_dropShadow_211_18" result="shape"/>
</filter>
<linearGradient id="paint0_linear_211_18" x1="-75.4374" y1="62.3411" x2="374.71" y2="421.165" gradientUnits="userSpaceOnUse">
<stop stop-color="#75C05E"/>
<stop offset="1" stop-color="#273837"/>
</linearGradient>
<linearGradient id="paint1_linear_211_18" x1="182.15" y1="-42.9365" x2="436.346" y2="540.371" gradientUnits="userSpaceOnUse">
<stop stop-color="#4DB879"/>
<stop offset="0.734375" stop-color="#11252B"/>
</linearGradient>
<clipPath id="clip0_211_18">
<rect width="112" height="65" rx="5" fill="white"/>
</clipPath>
</defs>
</svg>
